<?xml version="1.0" encoding="utf-8"?>
<!-- Generator: Adobe Illustrator 27.5.0, SVG Export Plug-In . SVG Version: 6.00 Build 0)  -->
<svg version="1.1" xmlns="http://www.w3.org/2000/svg" xmlns:xlink="http://www.w3.org/1999/xlink" x="0px" y="0px"
	 viewBox="0 0 1200 1200" style="enable-background:new 0 0 1200 1200;" xml:space="preserve">
<g id="Bg">
	<rect style="fill:#FFFFFF;" width="1200" height="1200"/>
</g>
<g id="Objects">
	<g>
		<path style="fill:#B69BE5;" d="M758.83,1200H0V0h530.81c0,0-477.7,577.32-361.04,869.92C170.2,873.03,204.45,1109.86,758.83,1200z
			"/>
		<defs>
			<filter id="Adobe_OpacityMaskFilter" filterUnits="userSpaceOnUse" x="0" y="0" width="758.83" height="1200">
				<feFlood  style="flood-color:white;flood-opacity:1" result="back"/>
				<feBlend  in="SourceGraphic" in2="back" mode="normal"/>
			</filter>
		</defs>
		<mask maskUnits="userSpaceOnUse" x="0" y="0" width="758.83" height="1200" id="SVGID_1_">
			<g style="filter:url(#Adobe_OpacityMaskFilter);">
				<defs>
					
						<filter id="Adobe_OpacityMaskFilter_00000137094339030725977600000009767781565709981367_" filterUnits="userSpaceOnUse" x="0" y="0" width="758.83" height="1200">
						<feFlood  style="flood-color:white;flood-opacity:1" result="back"/>
						<feBlend  in="SourceGraphic" in2="back" mode="normal"/>
					</filter>
				</defs>
				<mask maskUnits="userSpaceOnUse" x="0" y="0" width="758.83" height="1200" id="SVGID_1_">
					<g style="filter:url(#Adobe_OpacityMaskFilter_00000137094339030725977600000009767781565709981367_);">
					</g>
				</mask>
				
					<linearGradient id="SVGID_00000034054764442397122280000012436810954731984003_" gradientUnits="userSpaceOnUse" x1="379.415" y1="12.606" x2="379.415" y2="1278.75">
					<stop  offset="0" style="stop-color:#000000"/>
					<stop  offset="0.1045" style="stop-color:#060606"/>
					<stop  offset="0.2508" style="stop-color:#191919"/>
					<stop  offset="0.4218" style="stop-color:#373737"/>
					<stop  offset="0.6115" style="stop-color:#606060"/>
					<stop  offset="0.8139" style="stop-color:#959595"/>
					<stop  offset="1" style="stop-color:#CCCCCC"/>
				</linearGradient>
				<path style="mask:url(#SVGID_1_);fill:url(#SVGID_00000034054764442397122280000012436810954731984003_);" d="M758.83,1200H0V0
					h530.81c0,0-477.7,577.32-361.04,869.92C170.2,873.03,204.45,1109.86,758.83,1200z"/>
			</g>
		</mask>
		
			<linearGradient id="SVGID_00000078005272376501608070000004640574072196527021_" gradientUnits="userSpaceOnUse" x1="379.415" y1="12.606" x2="379.415" y2="1278.75">
			<stop  offset="0" style="stop-color:#A189E5"/>
			<stop  offset="1" style="stop-color:#A189E5"/>
		</linearGradient>
		<path style="opacity:0.87;fill:url(#SVGID_00000078005272376501608070000004640574072196527021_);" d="M758.83,1200H0V0h530.81
			c0,0-477.7,577.32-361.04,869.92C170.2,873.03,204.45,1109.86,758.83,1200z"/>
		<defs>
			
				<filter id="Adobe_OpacityMaskFilter_00000034078366843223343590000003324063956164427180_" filterUnits="userSpaceOnUse" x="0" y="0" width="758.83" height="1200">
				<feFlood  style="flood-color:white;flood-opacity:1" result="back"/>
				<feBlend  in="SourceGraphic" in2="back" mode="normal"/>
			</filter>
		</defs>
		
			<mask maskUnits="userSpaceOnUse" x="0" y="0" width="758.83" height="1200" id="SVGID_00000048476335111165539040000012001725393969263532_">
			<g style="filter:url(#Adobe_OpacityMaskFilter_00000034078366843223343590000003324063956164427180_);">
				<defs>
					
						<filter id="Adobe_OpacityMaskFilter_00000039113978984898716480000003639449241700690361_" filterUnits="userSpaceOnUse" x="0" y="0" width="758.83" height="1200">
						<feFlood  style="flood-color:white;flood-opacity:1" result="back"/>
						<feBlend  in="SourceGraphic" in2="back" mode="normal"/>
					</filter>
				</defs>
				
					<mask maskUnits="userSpaceOnUse" x="0" y="0" width="758.83" height="1200" id="SVGID_00000048476335111165539040000012001725393969263532_">
					<g style="filter:url(#Adobe_OpacityMaskFilter_00000039113978984898716480000003639449241700690361_);">
					</g>
				</mask>
				
					<linearGradient id="SVGID_00000162347678163252326890000004790057601657083054_" gradientUnits="userSpaceOnUse" x1="617.6141" y1="-45.1224" x2="-30.4527" y2="1710.0582">
					<stop  offset="0" style="stop-color:#000000"/>
					<stop  offset="0.109" style="stop-color:#060606"/>
					<stop  offset="0.2614" style="stop-color:#191919"/>
					<stop  offset="0.4395" style="stop-color:#373737"/>
					<stop  offset="0.6357" style="stop-color:#606060"/>
					<stop  offset="0.6626" style="stop-color:#666666"/>
				</linearGradient>
				
					<path style="mask:url(#SVGID_00000048476335111165539040000012001725393969263532_);fill:url(#SVGID_00000162347678163252326890000004790057601657083054_);" d="
					M758.83,1200H0V0h530.81c0,0-477.7,577.32-361.04,869.92C170.2,873.03,204.45,1109.86,758.83,1200z"/>
			</g>
		</mask>
		
			<linearGradient id="SVGID_00000039121253702450914970000007575428270571131305_" gradientUnits="userSpaceOnUse" x1="617.6141" y1="-45.1224" x2="-30.4527" y2="1710.0582">
			<stop  offset="0" style="stop-color:#A189E5"/>
			<stop  offset="0.1183" style="stop-color:#9F83E3"/>
			<stop  offset="0.2837" style="stop-color:#9A70DE"/>
			<stop  offset="0.4761" style="stop-color:#9253D6"/>
			<stop  offset="0.6626" style="stop-color:#882FCC"/>
		</linearGradient>
		<path style="opacity:0.87;fill:url(#SVGID_00000039121253702450914970000007575428270571131305_);" d="M758.83,1200H0V0h530.81
			c0,0-477.7,577.32-361.04,869.92C170.2,873.03,204.45,1109.86,758.83,1200z"/>
		<defs>
			
				<filter id="Adobe_OpacityMaskFilter_00000093150419889407797020000014235232736109074829_" filterUnits="userSpaceOnUse" x="128.356" y="-0.001" width="513.732" height="1035.509">
				<feFlood  style="flood-color:white;flood-opacity:1" result="back"/>
				<feBlend  in="SourceGraphic" in2="back" mode="normal"/>
			</filter>
		</defs>
		
			<mask maskUnits="userSpaceOnUse" x="128.356" y="-0.001" width="513.732" height="1035.509" id="SVGID_00000063623212890376520560000006690261066072432059_">
			<g style="filter:url(#Adobe_OpacityMaskFilter_00000093150419889407797020000014235232736109074829_);">
				<defs>
					
						<filter id="Adobe_OpacityMaskFilter_00000040536876942177944450000010628696570687536031_" filterUnits="userSpaceOnUse" x="128.356" y="-0.001" width="513.732" height="1035.509">
						<feFlood  style="flood-color:white;flood-opacity:1" result="back"/>
						<feBlend  in="SourceGraphic" in2="back" mode="normal"/>
					</filter>
				</defs>
				
					<mask maskUnits="userSpaceOnUse" x="128.356" y="-0.001" width="513.732" height="1035.509" id="SVGID_00000063623212890376520560000006690261066072432059_">
					<g style="filter:url(#Adobe_OpacityMaskFilter_00000040536876942177944450000010628696570687536031_);">
					</g>
				</mask>
				
					<linearGradient id="SVGID_00000013883039999162288000000016222706015720372151_" gradientUnits="userSpaceOnUse" x1="177.2745" y1="934.6265" x2="735.9089" y2="-32.9568">
					<stop  offset="0" style="stop-color:#808080"/>
					<stop  offset="1" style="stop-color:#FFFFFF"/>
				</linearGradient>
				
					<path style="mask:url(#SVGID_00000063623212890376520560000006690261066072432059_);fill:url(#SVGID_00000013883039999162288000000016222706015720372151_);" d="
					M406.399,1035.507C-243.265,885.694,449.213-0.001,449.213-0.001h192.875C593.036,46.273,367.39,262.854,271.021,474.688
					C73.617,908.609,349.966,1030.359,406.399,1035.507z"/>
			</g>
		</mask>
		
			<linearGradient id="SVGID_00000152981348929258538210000003094920459724043910_" gradientUnits="userSpaceOnUse" x1="177.2745" y1="934.6265" x2="735.9089" y2="-32.9568">
			<stop  offset="0" style="stop-color:#FFFFFF"/>
			<stop  offset="1" style="stop-color:#A189E5"/>
		</linearGradient>
		<path style="fill:url(#SVGID_00000152981348929258538210000003094920459724043910_);" d="M406.399,1035.507
			C-243.265,885.694,449.213-0.001,449.213-0.001h192.875C593.036,46.273,367.39,262.854,271.021,474.688
			C73.617,908.609,349.966,1030.359,406.399,1035.507z"/>
		<path style="fill:#B69BE5;" d="M1200,696.67V1200H758.83c-554.38-90.14-588.63-326.97-589.06-330.08
			c11.84,29.7,29.8,56.46,55.01,79.39c73.23,66.62,160.33,92.67,251.89,92.57C808.97,1041.52,1200,696.67,1200,696.67z"/>
		<defs>
			
				<filter id="Adobe_OpacityMaskFilter_00000049216583398723543620000014531483176531920805_" filterUnits="userSpaceOnUse" x="169.77" y="696.67" width="1030.23" height="503.33">
				<feFlood  style="flood-color:white;flood-opacity:1" result="back"/>
				<feBlend  in="SourceGraphic" in2="back" mode="normal"/>
			</filter>
		</defs>
		
			<mask maskUnits="userSpaceOnUse" x="169.77" y="696.67" width="1030.23" height="503.33" id="SVGID_00000052806315973772173480000010529420074356714909_">
			<g style="filter:url(#Adobe_OpacityMaskFilter_00000049216583398723543620000014531483176531920805_);">
				<defs>
					
						<filter id="Adobe_OpacityMaskFilter_00000130629985416248052960000018362260516020547493_" filterUnits="userSpaceOnUse" x="169.77" y="696.67" width="1030.23" height="503.33">
						<feFlood  style="flood-color:white;flood-opacity:1" result="back"/>
						<feBlend  in="SourceGraphic" in2="back" mode="normal"/>
					</filter>
				</defs>
				
					<mask maskUnits="userSpaceOnUse" x="169.77" y="696.67" width="1030.23" height="503.33" id="SVGID_00000052806315973772173480000010529420074356714909_">
					<g style="filter:url(#Adobe_OpacityMaskFilter_00000130629985416248052960000018362260516020547493_);">
					</g>
				</mask>
				
					<linearGradient id="SVGID_00000026880214561185533190000002871512390769836977_" gradientUnits="userSpaceOnUse" x1="1185.6772" y1="869.5395" x2="522.6111" y2="1088.5619">
					<stop  offset="0" style="stop-color:#000000"/>
					<stop  offset="1" style="stop-color:#FFFFFF"/>
				</linearGradient>
				
					<path style="mask:url(#SVGID_00000052806315973772173480000010529420074356714909_);fill:url(#SVGID_00000026880214561185533190000002871512390769836977_);" d="
					M1200,696.67V1200H758.83c-554.38-90.14-588.63-326.97-589.06-330.08c11.84,29.7,29.8,56.46,55.01,79.39
					c73.23,66.62,160.33,92.67,251.89,92.57C808.97,1041.52,1200,696.67,1200,696.67z"/>
			</g>
		</mask>
		
			<linearGradient id="SVGID_00000019672944624876114370000006705680322131905958_" gradientUnits="userSpaceOnUse" x1="1185.6772" y1="869.5395" x2="522.6111" y2="1088.5619">
			<stop  offset="0" style="stop-color:#FFFFFF"/>
			<stop  offset="1" style="stop-color:#882FCC"/>
		</linearGradient>
		<path style="opacity:0.4;fill:url(#SVGID_00000019672944624876114370000006705680322131905958_);" d="M1200,696.67V1200H758.83
			c-554.38-90.14-588.63-326.97-589.06-330.08c11.84,29.7,29.8,56.46,55.01,79.39c73.23,66.62,160.33,92.67,251.89,92.57
			C808.97,1041.52,1200,696.67,1200,696.67z"/>
		<defs>
			
				<filter id="Adobe_OpacityMaskFilter_00000025429063511866308930000007217612673637921712_" filterUnits="userSpaceOnUse" x="406.399" y="592.125" width="793.601" height="490.488">
				<feFlood  style="flood-color:white;flood-opacity:1" result="back"/>
				<feBlend  in="SourceGraphic" in2="back" mode="normal"/>
			</filter>
		</defs>
		
			<mask maskUnits="userSpaceOnUse" x="406.399" y="592.125" width="793.601" height="490.488" id="SVGID_00000023997254660246165490000015559529350451818893_">
			<g style="filter:url(#Adobe_OpacityMaskFilter_00000025429063511866308930000007217612673637921712_);">
				<defs>
					
						<filter id="Adobe_OpacityMaskFilter_00000027581219746347400630000009014662531248281236_" filterUnits="userSpaceOnUse" x="406.399" y="592.125" width="793.601" height="490.488">
						<feFlood  style="flood-color:white;flood-opacity:1" result="back"/>
						<feBlend  in="SourceGraphic" in2="back" mode="normal"/>
					</filter>
				</defs>
				
					<mask maskUnits="userSpaceOnUse" x="406.399" y="592.125" width="793.601" height="490.488" id="SVGID_00000023997254660246165490000015559529350451818893_">
					<g style="filter:url(#Adobe_OpacityMaskFilter_00000027581219746347400630000009014662531248281236_);">
					</g>
				</mask>
				
					<linearGradient id="SVGID_00000033353648417555489830000004644754198357501318_" gradientUnits="userSpaceOnUse" x1="803.1996" y1="1084.624" x2="803.1996" y2="556.4569">
					<stop  offset="0" style="stop-color:#808080"/>
					<stop  offset="0.3137" style="stop-color:#B2B2B2"/>
					<stop  offset="0.6187" style="stop-color:#DCDCDC"/>
					<stop  offset="0.8572" style="stop-color:#F5F5F5"/>
					<stop  offset="1" style="stop-color:#FFFFFF"/>
				</linearGradient>
				
					<path style="mask:url(#SVGID_00000023997254660246165490000015559529350451818893_);fill:url(#SVGID_00000033353648417555489830000004644754198357501318_);" d="
					M1200,592.125v365.283c0,0-406.291,218.611-793.601,78.1C406.399,1035.507,795.081,1033.103,1200,592.125z"/>
			</g>
		</mask>
		
			<linearGradient id="SVGID_00000166647359684176020680000017576140710700760244_" gradientUnits="userSpaceOnUse" x1="803.1996" y1="1084.624" x2="803.1996" y2="556.4569">
			<stop  offset="0" style="stop-color:#FFFFFF"/>
			<stop  offset="0.179" style="stop-color:#EEE8F9"/>
			<stop  offset="0.5426" style="stop-color:#D0BEEE"/>
			<stop  offset="0.8288" style="stop-color:#BDA5E7"/>
			<stop  offset="1" style="stop-color:#B69BE5"/>
		</linearGradient>
		<path style="fill:url(#SVGID_00000166647359684176020680000017576140710700760244_);" d="M1200,592.125v365.283
			c0,0-406.291,218.611-793.601,78.1C406.399,1035.507,795.081,1033.103,1200,592.125z"/>
	</g>
</g>
</svg>
